/* XPM */
static char *_18aede292a946b783b0cc8f5d93088b[] = {
/* columns rows colors chars-per-pixel */
"32 32 98 2 ",
"   c black",
".  c #000101",
"X  c #000002",
"o  c #010102",
"O  c #010103",
"+  c #000202",
"@  c #010202",
"#  c #010203",
"$  c #010204",
"%  c #010304",
"&  c #010305",
"*  c #020204",
"=  c #020305",
"-  c #010306",
";  c #020306",
":  c #020406",
">  c #030406",
",  c #020407",
"<  c #020507",
"1  c #020408",
"2  c #020608",
"3  c #030608",
"4  c #020609",
"5  c #05090F",
"6  c #050A10",
"7  c #060B11",
"8  c #0B1622",
"9  c #0C1825",
"0  c #0C1826",
"q  c #0C1926",
"w  c #112235",
"e  c #132337",
"r  c #13253A",
"t  c #172D47",
"y  c #182C46",
"u  c #1A304B",
"i  c #1E395B",
"p  c #1F3B5C",
"a  c #1F3C5E",
"s  c #1F3C5F",
"d  c #203C5F",
"f  c #203D60",
"g  c #203D61",
"h  c #203E62",
"j  c #213F63",
"k  c #213F64",
"l  c #214065",
"z  c #25466E",
"x  c #264872",
"c  c #274A74",
"v  c #284C77",
"b  c #284C78",
"n  c #284D79",
"m  c #284D7A",
"M  c #2A507E",
"N  c #2B5180",
"B  c #2B5383",
"V  c #2C5586",
"C  c #2D5688",
"Z  c #2E5789",
"A  c #2E588A",
"S  c #2E588B",
"D  c #2F598C",
"F  c #2F598D",
"G  c #2F5A8E",
"H  c #2F5B8F",
"J  c #305B90",
"K  c #315D92",
"L  c #325F95",
"P  c #326097",
"I  c #33619A",
"U  c #34639C",
"Y  c #35649E",
"T  c #3566A1",
"R  c #3667A2",
"E  c #3667A3",
"W  c #3668A4",
"Q  c #3768A5",
"!  c #3769A6",
"~  c #396EAD",
"^  c #3A6FAF",
"/  c #3F78BE",
"(  c #407AC0",
")  c #407AC1",
"_  c #407BC2",
"`  c #417BC3",
"'  c #417CC4",
"]  c #437FC9",
"[  c #4381CB",
"{  c #4686D4",
"}  c #4787D5",
"|  c #488AD9",
" . c #4A8DDE",
".. c #4A8DDF",
"X. c #4A8EE0",
"o. c #4D92E7",
"O. c #4D93E8",
"+. c None",
/* pixels */
"+.+.. . & +.+.+.+.+.+.+.+.+.. . . +.+.+.+.+.+.+.+.+.+.+.+.+.+.+.",
"+.& q A d . . +.+.+.+.+.+.+ u H r & +.+.+.+.+.+.+.+.+.+.+.+.+.+.",
"+.. [ O.O.Q , . +.+.+.+.. q O.Z J l . +.+.+.+.+.+.+.+.+.+.+.+.+.",
"+.,  .O.O.O.Q , + +.+.+.. y O.P . C l & +.+.+.+.+.+.+.+.+.+.+.+.",
"+.. n O.O.O.O.Q + + +.+.+.. / O.K . V k . +.+.+.+.+.+.+.+.+.+.+.",
"+.+.. A O.O.O.O.Q , + +.+., 5 / O.P . N l * +.+.+.+.+.+.+.+.+.+.",
"+.+.+.. A O.O.O.O.! + + +.+., 5 ( O.L & M k & +.+.+.+.+.+.+.+.+.",
"+.+.+.+.. A O.O.O.O.! , + +.+., 7 ( O.I & n k & +.+.+.+.+.+.+.+.",
"+.+.+.+.+.. D O.O.O.O.Q , + +.+.& 7 _ O.Y & n k . +.+.+.+.+.+.+.",
"+.+.+.+.+.+.. D O.O.O.O.! + + +.+.& 7 _ o.Y & c l * +.+.+.+.+.+.",
"+.+.+.+.+.+.+.. D O.O.O.O.Q , + +.+.- 7 ( O.T & x l & +.+.+.+.+.",
"+.+.+.+.+.+.+.+.. D O.O.O.O.Q , . +.+.- 7 ( O.Q > z l . +.+.+.+.",
"+.+.+.+.+.+.+.+.+.. D O.O.O.O.! & . +.+.& 7 ` O.Q 3 } l & +.+.+.",
"+.+.+.+.+.+.+.+.+.+.. H O.O.O.O.Q , . +.+.& 7 ( O. .X.~ l . +.+.",
"+.+.+.+.+.+.+.+.+.+.+.. J O.O.O.O.Q . +.+.+.& 7 ' O.} > v d 3 +.",
"+.+.+.+.+.+.+.+.+.+.+.+.. Q O.O.O.O.e . +.+.+.& 7 | o.^ C } & +.",
"+.+.+.+.+.+.+.+.+.+.+.+.. Q O.O.O.O.e & +.+.+.& 7 | O.O.O.} & +.",
"+.+.+.+.+.+.+.+.+.+.+.. H O.O.O.O.! . +.+.+.& 7 ' O.O.O.O.p 3 +.",
"+.+.+.+.+.+.+.+.+.+.. H O.O.O.O.Q , . +.+.& 7 ( O.O.O.O.j & +.+.",
"+.+.+.+.+.+.+.+.+.. H O.O.O.O.Q , . +.+.& 7 ` O.O.O.O.k . +.+.+.",
"+.+.+.+.+.+.+.+.. D O.O.O.O.Q , . +.+.& 7 _ O.O.O.O.j & +.+.+.+.",
"+.+.+.+.+.+.+.. D O.O.O.O.Q , . +.+.& 7 _ O.O.O.O.k . +.+.+.+.+.",
"+.+.+.+.+.+.. D O.O.O.O.Q . . +.+., 5 _ O.O.O.O.j . +.+.+.+.+.+.",
"+.+.+.+.+.. D O.O.O.O.Q & & +.+., 5 _ o.O.O.O.g & +.+.+.+.+.+.+.",
"+.+.+.+.. A O.O.O.O.Q , . +.+.& 5 ( O.O.O.o.j . +.+.+.+.+.+.+.+.",
"+.+.+.. A O.O.O.O.E . . +.+.& 5 ( O.O.O.O.j . +.+.+.+.+.+.+.+.+.",
"+.+.. A O.O.O.O.E & . +.+.> 7 ( O.O.o.O.j . +.+.+.+.+.+.+.+.+.+.",
"+.. n O.O.O.O.T , . +.+.+.. / O.O.O.o.j . +.+.+.+.+.+.+.+.+.+.+.",
"+.&  .O.O.O.E & . +.+.+.& y O.O.O.o.d . +.+.+.+.+.+.+.+.+.+.+.+.",
"+.. [ o.O.E & . +.+.+.+.. q O.O.o.d & +.+.+.+.+.+.+.+.+.+.+.+.+.",
"+.& 8 Z d . . +.+.+.+.+.+.. t J e . +.+.+.+.+.+.+.+.+.+.+.+.+.+.",
"+.+.+.3 > +.+.+.+.+.+.+.+.+.* & & +.+.+.+.+.+.+.+.+.+.+.+.+.+.+."
};
