/* XPM */
static char *ea5eff004d8b4a26848eed9356786983[] = {
/* columns rows colors chars-per-pixel */
"23 23 2 1 ",
"  c black",
". c None",
/* pixels */
".......................",
"          ...          ",
"          ...          ",
"          ...          ",
"          ...          ",
"          ...          ",
"          ...          ",
"          ...          ",
"          ...          ",
"          ...          ",
"          ...          ",
"          ...          ",
"          ...          ",
"          ...          ",
"          ...          ",
"          ...          ",
"          ...          ",
"          ...          ",
"          ...          ",
"          ...          ",
"          ...          ",
"          ...          ",
"......................."
};
