/* XPM */
static char *_7d11bfb14cf442faaf2c6e81b783446[] = {
/* columns rows colors chars-per-pixel */
"24 24 2 1 ",
"  c black",
". c None",
/* pixels */
"........................",
"........................",
"...  ...................",
"...    .................",
"...     ................",
"...       ..............",
"...         ............",
"...          ...........",
"...            .........",
"...              .......",
"...                .....",
"...                 ....",
"...                 ....",
"...                .....",
"...              .......",
"...            .........",
"...          ...........",
"...         ............",
"...       ..............",
"...     ................",
"...    .................",
"...  ...................",
"........................",
"........................"
};
