/* XPM */
static char *e709b43d0830484089921cd74334ab17[] = {
/* columns rows colors chars-per-pixel */
"24 24 2 1 ",
"  c black",
". c None",
/* pixels */
"........................",
"........................",
"........................",
".........     ..........",
".........     ..........",
".........     ..........",
".........     ..........",
".........     ..........",
".........     ..........",
".........     ..........",
"..                   ...",
".                    ...",
".                    ...",
".                    ...",
".                    ...",
".........     ..........",
".........     ..........",
".........     ..........",
".........     ..........",
".........     ..........",
".........     ..........",
".........     ..........",
".........    ...........",
"........................"
};
