/* XPM */
static char *_d2b15e2a6d243abff4a5f855a08b451[] = {
/* columns rows colors chars-per-pixel */
"23 23 2 1 ",
"  c black",
". c None",
/* pixels */
".......................",
"...  ..................",
"...   ............. ...",
"...   ...........   ...",
"...   ..........    ...",
"...   ........      ...",
"...   .......       ...",
"...   .....         ...",
"...   ....          ...",
"...   ...           ...",
"...   .             ...",
"...                 ...",
"...   .             ...",
"...   ...           ...",
"...   ....          ...",
"...   .....         ...",
"...   .......       ...",
"...   ........      ...",
"...   ..........    ...",
"...   ...........   ...",
"...   ............. ...",
"...  ..................",
"......................."
};
