/* XPM */
static char *e8086f208497402dd2480cfeb855ec63[] = {
/* columns rows colors chars-per-pixel */
"24 24 2 1 ",
"  c black",
". c None",
/* pixels */
"........................",
"..................   ...",
"... ..............   ...",
"...   ............   ...",
"...    ...........   ...",
"...      .........   ...",
"...       ........   ...",
"...         ......   ...",
"...          .....   ...",
"...           ....   ...",
"...             ..   ...",
"...              .   ...",
"...              .   ...",
"...             ..   ...",
"...           ....   ...",
"...          .....   ...",
"...         ......   ...",
"...       ........   ...",
"...      .........   ...",
"...    ...........   ...",
"...   ............   ...",
"... ..............   ...",
"..................   ...",
"........................"
};
