/* XPM */
static char *_6e857e65e564cbfd5b35b18cb5bf273[] = {
/* columns rows colors chars-per-pixel */
"24 24 2 1 ",
"  c black",
". c None",
/* pixels */
"........................",
"........................",
"............  ..........",
"...........   ..........",
"..........    ..........",
".........     ..........",
".......       ..........",
"......        ..........",
"              .  .....  ",
"              ..  ...  .",
"              ..   .  ..",
"              ....   ...",
"              ...    ...",
"              ..   .  ..",
"              .   ...  .",
"              .  .....  ",
"              ..........",
".......       ..........",
".........     ..........",
"..........    ..........",
"...........   ..........",
"............  ..........",
"........................",
"........................"
};
