/* XPM */
static char *bc8d9ef6ef854e68926c5d453cbde212[] = {
/* columns rows colors chars-per-pixel */
"23 23 2 1 ",
"  c black",
". c None",
/* pixels */
".......................",
".................. ....",
"............ .....  ...",
"..........   ......  ..",
".........    ...  .  ..",
"........     .... ..  .",
".......      ....  .  .",
"             .. .. .. .",
"             ..  .  .  ",
"             ..  .  .  ",
"             ... .. .  ",
"             ... .. .  ",
"             ... .. .. ",
"             ... .. .  ",
"             ... .  .  ",
"             ..  .  .  ",
".......      ..  .  .  ",
"........     ....  .. .",
".........    ....  .  .",
"..........   .... .. ..",
"............ ......  ..",
"................... ...",
"......................."
};
