/* XPM */
static char *_a86202ebd314592b3105d4283b0d4ca[] = {
/* columns rows colors chars-per-pixel */
"24 24 2 1 ",
"  c black",
". c None",
/* pixels */
"........................",
"........................",
"............  ..........",
"...........   ..........",
"..........    ..........",
".........     ..........",
".......       ..........",
"......        .. .......",
"              .. .......",
"              ..  ......",
"              ..  ......",
"              ... ......",
"              ... ......",
"              ... ......",
"              ..  ......",
"              ..  ......",
"              .. .......",
".......       .. .......",
".........     ..........",
"..........    ..........",
"...........   ..........",
"............  ..........",
"........................",
"........................"
};
